<mxfile host="app.diagrams.net" modified="2024-01-04T10:17:56.596Z" agent="Mozilla/5.0 (Macintosh; Intel Mac OS X 10_15_7) AppleWebKit/537.36 (KHTML, like Gecko) Chrome/120.0.0.0 Safari/537.36 Edg/120.0.0.0" version="22.1.16" etag="RNosQfOvHGuOdTWmGP3c" type="github">
  <diagram name="ページ1" id="rCNyVWkuuYOBqCYV4Hl_">
    <mxGraphModel>
      <root>
        <mxCell id="0" />
        <mxCell id="1" parent="0" />
      </root>
    </mxGraphModel>
  </diagram>
</mxfile>
